<svg xmlns="http://www.w3.org/2000/svg" xmlns:xlink="http://www.w3.org/1999/xlink" width="24" height="21" viewBox="0 0 24 21"><defs><path id="aaida" d="M922.98 12724.81h5.66c.63 0 1.13.51 1.13 1.13v9.04c0 .62-.5 1.13-1.13 1.13h-5.66c-.62 0-1.13-.5-1.13-1.13v-9.04c0-.62.5-1.13 1.13-1.13zm0 3.4h1.13v-2.27h-1.13zm2.27 0h1.13v-2.27h-1.13zm2.26 0h1.13v-2.27h-1.13zm-4.53 3.38h1.13v-2.26h-1.13zm2.27 0h1.13v-2.26h-1.13zm2.26 0h1.13v-2.26h-1.13zm-4.53 3.39h1.13v-2.26h-1.13zm4.53 0h1.13v-2.26h-1.13zm4.53-16.94h8.98c.63 0 1.2.5 1.2 1.13v15.81s-.43 1.13-1.05 1.13h-9.13s-1.13-.5-1.13-1.13v-15.81c0-.63.5-1.13 1.13-1.13zm0 6.77h2.26v-2.26h-2.26zm0 3.4h2.26v-2.27h-2.26zm0 3.38h2.26v-2.26h-2.26zm0 3.39h2.26v-2.26h-2.26zm6.79-10.17h2.26v-2.26h-2.26zm0 3.4h2.26v-2.27h-2.26zm0 3.38h2.26v-2.26h-2.26zm0 3.39h2.26v-2.26h-2.26zm-6.8-13.55h2.27v-2.26h-2.26zm6.8 0h2.26v-2.26h-2.26zm-3.4 3.38h2.27v-2.26h-2.27zm0 3.4h2.27v-2.27h-2.27zm0 3.38h2.27v-2.26h-2.27zm0-10.16h2.27v-2.26h-2.27z"/><mask id="aaidc" width="2" height="2" x="-1" y="-1"><path fill="#fff" d="M921 12718h22v19h-22z"/><use xlink:href="#aaida"/></mask><filter id="aaidb" width="42.7" height="39.7" x="911" y="12708" filterUnits="userSpaceOnUse"><feOffset dx=".7" dy=".7" in="SourceGraphic" result="FeOffset1173Out"/><feGaussianBlur in="FeOffset1173Out" result="FeGaussianBlur1174Out" stdDeviation="0 0"/></filter></defs><g><g transform="translate(-920 -12717)"><g filter="url(#aaidb)"><use fill="none" stroke-opacity=".25" stroke-width="0" mask="url(&quot;#aaidc&quot;)" xlink:href="#aaida"/><use fill-opacity=".25" xlink:href="#aaida"/></g><use fill="#614261" xlink:href="#aaida"/><use fill="#fff" xlink:href="#aaida"/></g></g></svg>